<svg aria-hidden="true" xmlns="http://www.w3.org/2000/svg" overflow="hidden">
<symbol id="wine">
<path fill="black" d="m 3.6869427,5.1442 c -3.93797403,4.0232 -0.0777,6.9415 3.0358505,5.0207 -0.58789,2.0957 -0.91118,2.2606 -1.26809,2.8125 l 3.36166,0 c -0.43151,-0.5573 -0.88469,-0.7168 -1.34383,-2.8005 C 10.651373,12.0029 14.001703,8.8184 10.474403,5.1442 8.1675332,3.1264 7.2719332,1.2842 7.0806732,1.0226 6.8971532,1.2405 5.8159332,3.1638 3.6869427,5.1442 Z"/>
</symbol>
<symbol id="trefl">
<path fill="black" d="m 5.9879637,6.1783 c -1.89881,-0.907 -4.69189,0.1749 -4.03105,2.6155 0.64399,2.3784 3.42513,1.8564 4.38685,0.4087 -0.40121,2.745 -1.10584,3.1724 -1.52817,3.7683 l 4.48387,0 c -0.4543,-0.6373 -1.27925,-1.0233 -1.76303,-3.806 0.96908,1.4454 3.8823703,1.9464 4.5170603,-0.3976 0.62435,-2.3058 -2.1900103,-3.619 -4.0614903,-2.5751 1.79457,-1.2051 2.4390503,-5.1629 -0.95987,-5.1629 -3.43247,0 -2.85977,4.0352 -1.04417,5.1491 z"/>
</symbol>
<symbol id="pik">
<path fill="red" d="m 6.999995,1 c -1.2494,2.0791 -2.65591,4.0791 -4.08487,6 1.49629,1.9209 2.92525,3.9209 4.08487,6 1.20452,-2.1187 2.52125,-4.1385 4.08488,-6 C 9.566135,5.0791 8.182065,3.0396 6.999995,1 Z"/>
</symbol>
<symbol id="karo">
<path fill="red" d="m 6.9238749,12.964876 c -0.0111,-0.02 -0.0587,-0.1642 -0.10586,-0.3207 -0.29877,-0.9913 -0.8534,-1.9952 -1.78219,-3.2256997 -0.34895,-0.4623 -0.67739,-0.8717 -1.56552,-1.9513 -1.02835,-1.25 -1.32291,-1.6505 -1.62036,-2.2028 -0.17565,-0.3262 -0.35768,-0.8224 -0.41758,-1.1385 -0.0599,-0.3158 -0.0608,-0.8319 -0.002,-1.1006 0.23902,-1.093 1.2099,-1.9176 2.37084,-2.0136 1.32995,-0.10999996 2.46124,0.5618 3.05565,1.8147 l 0.13273,0.2797 0.0999,-0.221 c 0.14844,-0.3284 0.29139,-0.5505 0.53268,-0.8276 0.61434,-0.7056 1.34547,-1.0512 2.22626,-1.0524 0.3945301,-5e-4 0.6206001,0.032 0.9568001,0.1386 0.50282,0.1591 0.88133,0.407 1.21843,0.7979 0.87849,1.0187 0.77448,2.4066 -0.30777,4.1063 -0.25245,0.3965 -0.70795,0.9832 -1.33437,1.7187 -0.7213701,0.8469 -1.0738301,1.2773 -1.4347001,1.752 -0.86498,1.1376997 -1.44672,2.1714997 -1.76671,3.1394997 -0.0488,0.1477 -0.1,0.2853 -0.11365,0.3058 -0.0318,0.048 -0.11629,0.048 -0.1425,10e-4 z"/>
</symbol>
</svg> 